<svg xmlns="http://www.w3.org/2000/svg" version="1.1" xmlns:xlink="http://www.w3.org/1999/xlink" xmlns:svgjs="http://svgjs.dev/svgjs" width="128" height="128" viewBox="0 0 128 128"><g transform="matrix(0.2959770114942529,0,0,0.2959770114942529,44.98745592457682,12.33387096774193)"><svg viewBox="0 0 57 155" data-background-color="#ffffff" preserveAspectRatio="xMidYMid meet" height="348" width="128" xmlns="http://www.w3.org/2000/svg" xmlns:xlink="http://www.w3.org/1999/xlink"><g id="tight-bounds" transform="matrix(1,0,0,1,0.10535825072197724,0.25)"><svg viewBox="0 0 56.789300101819464 154.5" height="154.5" width="56.789300101819464"><g><svg viewBox="0 0 56.789300101819464 154.5" height="154.5" width="56.789300101819464"><g><svg viewBox="0 0 56.789300101819464 154.5" height="154.5" width="56.789300101819464"><g id="textblocktransform"><svg viewBox="0 0 56.789300101819464 154.5" height="154.5" width="56.789300101819464" id="textblock"><g><svg viewBox="0 0 56.789300101819464 154.5" height="154.5" width="56.789300101819464"><g transform="matrix(1,0,0,1,0,0)"><svg width="56.789300101819464" viewBox="1.3588932250010002 -40 14.831106774999 40.34" height="154.5" data-palette-color="#b81d33"><path d="M8.63 0.34L8.63 0.34Q4.86 0.34 3.19-1.26 1.53-2.86 1.43-6.56L1.43-6.56Q1.38-8.45 1.36-10.25 1.35-12.05 1.43-14.45L1.43-14.45 2.21-14.45Q2.18-13.05 2.16-11.79 2.15-10.54 2.16-9.28 2.18-8.01 2.21-6.58L2.21-6.58Q2.33-3.21 3.81-1.75 5.29-0.29 8.63-0.29L8.63-0.29Q12.25-0.29 13.83-1.74 15.4-3.2 15.4-6.56L15.4-6.56 15.4-40 16.19-40 16.19-6.56Q16.19-2.86 14.43-1.26 12.68 0.34 8.63 0.34ZM8.63-0.93L8.63-0.93Q5.71-0.93 4.41-2.24 3.1-3.56 3.01-6.59L3.01-6.59Q2.96-8.14 2.95-9.44 2.94-10.74 2.96-11.95 2.98-13.16 3.01-14.45L3.01-14.45 3.8-14.45Q3.75-12.76 3.74-10.89 3.73-9.01 3.8-6.64L3.8-6.64Q3.9-3.81 5.08-2.69 6.26-1.56 8.63-1.56L8.63-1.56Q11.4-1.56 12.61-2.72 13.81-3.88 13.81-6.56L13.81-6.56 13.81-40 14.6-40 14.6-6.56Q14.6-3.54 13.21-2.23 11.83-0.93 8.63-0.93ZM8.63-2.2L8.63-2.2Q6.41-2.2 5.54-3.29 4.66-4.39 4.59-6.66L4.59-6.66Q4.55-8.05 4.54-9.24 4.54-10.44 4.55-11.68 4.56-12.93 4.59-14.45L4.59-14.45 5.39-14.45Q5.34-12.75 5.33-11.41 5.31-10.06 5.34-8.92 5.36-7.78 5.39-6.66L5.39-6.66Q5.44-4.74 6.13-3.78 6.83-2.83 8.63-2.83L8.63-2.83Q10.55-2.83 11.39-3.69 12.23-4.56 12.23-6.56L12.23-6.56 12.23-40 13.03-40 13.03-6.56Q13.03-4.21 12-3.21 10.98-2.2 8.63-2.2Z" opacity="1" transform="matrix(1,0,0,1,0,0)" fill="#b81d33" class="wordmark-text-0" data-fill-palette-color="primary" id="text-0"></path></svg></g></svg></g></svg></g></svg></g><g></g></svg></g><defs></defs></svg><rect width="56.789300101819464" height="154.5" fill="none" stroke="none" visibility="hidden"></rect></g></svg></g></svg>